# xmcd
#
# Track frame offsets:
#        150
#        20852
#        40575
#        56967
#        89817
#        117367
#        144225
#        161285
#
# Disc length: 2596 seconds
#
# Revision: 5
# Processed by: cddbd v1.5PL3 Copyright (c) Steve Scherf et al.
# Submitted via: ExactAudioCopy v0.95a4
#
DISCID=6b0a2208
DTITLE=Deep Purple - Shades Of Deep Purple
DYEAR=1968
DGENRE=Hard Rock
TTITLE0=And The Address
TTITLE1=Hush
TTITLE2=One More Rain Day
TTITLE3=(a) Prelude: Happiness/(b) I'm So Glad
TTITLE4=Mandrake Root
TTITLE5=Help
TTITLE6=Love Help Me
TTITLE7=Hey Joe
EXTD=YEAR: 1968
EXTT0=
EXTT1=
EXTT2=
EXTT3=
EXTT4=
EXTT5=
EXTT6=
EXTT7=
PLAYORDER=
